<mxfile host="app.diagrams.net" modified="2023-11-28T16:08:07.114Z" agent="Mozilla/5.0 (Windows NT 10.0; Win64; x64) AppleWebKit/537.36 (KHTML, like Gecko) Chrome/119.0.0.0 Safari/537.36" version="22.1.4" etag="CFy2uxeEVKYWNbKN4e9E" type="github">
  <diagram name="PÃ¡gina-1" id="Oc8_3aRXbOxg9JNsKzp7">
    <mxGraphModel>
      <root>
        <mxCell id="0" />
        <mxCell id="1" parent="0" />
      </root>
    </mxGraphModel>
  </diagram>
</mxfile>
